<?xml version="1.0" ?><svg version="1.1" viewBox="0 0 24 24" xml:space="preserve" xmlns="http://www.w3.org/2000/svg" xmlns:xlink="http://www.w3.org/1999/xlink"><g id="wind"><path fill="#ffffff" d="M21.3,6l-11-3C10,3,9.7,3,9.4,3.2L7,4.9V3c0-0.6-0.4-1-1-1S5,2.4,5,3v17H4c-0.6,0-1,0.4-1,1s0.4,1,1,1h4c0.6,0,1-0.4,1-1   s-0.4-1-1-1H7v-7.4l2.6,1.3C9.7,14,9.8,14,10,14c0.1,0,0.2,0,0.3,0l11-3c0.4-0.1,0.7-0.5,0.7-1V7C22,6.5,21.7,6.2,21.3,6z M12,5.6   l3,0.8v4.2l-3,0.8V5.6z M7,10.4l0-3l3-2.1v6.7L7,10.4z M20,9.2l-3,0.8V6.9l3,0.8V9.2z"/></g></svg>